# xmcd
#
# Track frame offsets: 
#        150
#        19515
#        38772
#        58095
#
# Disc length: 1031 seconds
#
# Revision: 3
# Processed by: cddbd v1.5.2PL0 Copyright (c) Steve Scherf et al.
# Submitted via: ExactAudioCopy v1.3
#
DISCID=28040504
DTITLE=NOA - 今を抱きしめて FHDF-1329
DYEAR=1993
DGENRE=JPop
TTITLE0=今を抱きしめて
TTITLE1=今を抱きしめて For men
TTITLE2=今を抱きしめて For women
TTITLE3=今を抱きしめて (オリジナル・カラオケ)
EXTD=YEAR: 2017
EXTT0=
EXTT1=
EXTT2=
EXTT3=
PLAYORDER=
